HIERARCHY
ROOT Hips
{
	OFFSET 0.000000 0.000000 0.000000
	CHANNELS 6 Xposition Yposition Zposition Xrotation Yrotation Zrotation
	JOINT Thigh.L
	{
		OFFSET 0.054984 0.030922 -0.092436
		CHANNELS 3 Xrotation Yrotation Zrotation
		JOINT Shin.L
		{
			OFFSET 0.054619 0.014450 -0.412924
			CHANNELS 3 Xrotation Yrotation Zrotation
			JOINT Foot.L
			{
				OFFSET -0.041972 0.033284 -0.434223
				CHANNELS 3 Xrotation Yrotation Zrotation
				JOINT Toe.L
				{
					OFFSET 0.045126 -0.120245 -0.064123
					CHANNELS 3 Xrotation Yrotation Zrotation
					End Site
					{
						OFFSET 0.000000 0.050000 0.000000
					}
				}
			}
		}
	}
	JOINT Thigh.R
	{
		OFFSET -0.060327 0.027872 -0.102994
		CHANNELS 3 Xrotation Yrotation Zrotation
		JOINT Shin.R
		{
			OFFSET -0.043808 0.020263 -0.396458
			CHANNELS 3 Xrotation Yrotation Zrotation
			JOINT Foot.R
			{
				OFFSET 0.015607 0.021653 -0.443167
				CHANNELS 3 Xrotation Yrotation Zrotation
				JOINT Toe.R
				{
					OFFSET -0.037324 -0.121015 -0.064032
					CHANNELS 3 Xrotation Yrotation Zrotation
					End Site
					{
						OFFSET 0.000000 0.050000 0.000000
					}
				}
			}
		}
	}
	JOINT Spine
	{
		OFFSET -0.002305 0.020187 0.110219
		CHANNELS 3 Xrotation Yrotation Zrotation
		JOINT Spine.2
		{
			OFFSET 0.007077 0.003306 0.135479
			CHANNELS 3 Xrotation Yrotation Zrotation
			JOINT Chest
			{
				OFFSET -0.010440 -0.023212 0.049861
				CHANNELS 3 Xrotation Yrotation Zrotation
				JOINT Neck
				{
					OFFSET -0.009677 0.028751 0.163657
					CHANNELS 3 Xrotation Yrotation Zrotation
					JOINT Head
					{
						OFFSET 0.022599 -0.021557 0.164157
						CHANNELS 3 Xrotation Yrotation Zrotation
						End Site
						{
							OFFSET 0.000000 0.050000 0.000000
						}
					}
				}
				JOINT Clavicle.L
				{
					OFFSET 0.043549 0.007940 0.083784
					CHANNELS 3 Xrotation Yrotation Zrotation
					JOINT UpperArm.L
					{
						OFFSET 0.108168 0.014882 0.062098
						CHANNELS 3 Xrotation Yrotation Zrotation
						JOINT ForeArm.L
						{
							OFFSET 0.265693 0.035816 -0.076101
							CHANNELS 3 Xrotation Yrotation Zrotation
							JOINT Hand.L
							{
								OFFSET 0.265757 0.005818 0.021586
								CHANNELS 3 Xrotation Yrotation Zrotation
								JOINT Thumb1.L
								{
									OFFSET 0.154578 0.002618 0.009713
									CHANNELS 3 Xrotation Yrotation Zrotation
									JOINT Thumb2.L
									{
										OFFSET 0.029894 0.000654 0.002428
										CHANNELS 3 Xrotation Yrotation Zrotation
										End Site
										{
											OFFSET 0.024912 0.000545 0.002023
										}
									}
								}
								JOINT Index1.L
								{
									OFFSET 0.137578 0.002618 0.009713
									CHANNELS 3 Xrotation Yrotation Zrotation
									JOINT Index2.L
									{
										OFFSET 0.029894 0.000654 0.002428
										CHANNELS 3 Xrotation Yrotation Zrotation
										JOINT Index3.L
										{
											OFFSET 0.021923 0.000480 0.001781
											CHANNELS 3 Xrotation Yrotation Zrotation
											End Site
											{
												OFFSET 0.017937 0.000393 0.001457
											}
										}
									}
								}
								JOINT Middle1.L
								{
									OFFSET 0.119578 0.002618 0.009713
									CHANNELS 3 Xrotation Yrotation Zrotation
									JOINT Middle2.L
									{
										OFFSET 0.030891 0.000676 0.002509
										CHANNELS 3 Xrotation Yrotation Zrotation
										JOINT Middle3.L
										{
											OFFSET 0.021923 0.000480 0.001781
											CHANNELS 3 Xrotation Yrotation Zrotation
											End Site
											{
												OFFSET 0.017937 0.000393 0.001457
											}
										}
									}
								}
								JOINT Ring1.L
								{
									OFFSET 0.101578 0.002618 0.009713
									CHANNELS 3 Xrotation Yrotation Zrotation
									JOINT Ring2.L
									{
										OFFSET 0.028898 0.000633 0.002347
										CHANNELS 3 Xrotation Yrotation Zrotation
										JOINT Ring3.L
										{
											OFFSET 0.019930 0.000436 0.001619
											CHANNELS 3 Xrotation Yrotation Zrotation
											End Site
											{
												OFFSET 0.016940 0.000371 0.001376
											}
										}
									}
								}
								JOINT Pinky1.L
								{
									OFFSET 0.085578 0.002618 0.009713
									CHANNELS 3 Xrotation Yrotation Zrotation
									JOINT Pinky2.L
									{
										OFFSET 0.023916 0.000524 0.001943
										CHANNELS 3 Xrotation Yrotation Zrotation
										JOINT Pinky3.L
										{
											OFFSET 0.016940 0.000371 0.001376
											CHANNELS 3 Xrotation Yrotation Zrotation
											End Site
											{
												OFFSET 0.013951 0.000305 0.001133
											}
										}
									}
								}
							}
						}
					}
				}
				JOINT Clavicle.R
				{
					OFFSET -0.041867 0.014022 0.083285
					CHANNELS 3 Xrotation Yrotation Zrotation
					JOINT UpperArm.R
					{
						OFFSET -0.093443 0.009865 0.057576
						CHANNELS 3 Xrotation Yrotation Zrotation
						JOINT ForeArm.R
						{
							OFFSET -0.281959 0.022967 -0.042849
							CHANNELS 3 Xrotation Yrotation Zrotation
							JOINT Hand.R
							{
								OFFSET -0.262421 0.018556 -0.003480
								CHANNELS 3 Xrotation Yrotation Zrotation
								JOINT Thumb1.R
								{
									OFFSET -0.154691 0.008463 -0.001587
									CHANNELS 3 Xrotation Yrotation Zrotation
									JOINT Thumb2.R
									{
										OFFSET -0.029923 0.002116 -0.000397
										CHANNELS 3 Xrotation Yrotation Zrotation
										End Site
										{
											OFFSET -0.024936 0.001763 -0.000331
										}
									}
								}
								JOINT Index1.R
								{
									OFFSET -0.137691 0.008463 -0.001587
									CHANNELS 3 Xrotation Yrotation Zrotation
									JOINT Index2.R
									{
										OFFSET -0.029923 0.002116 -0.000397
										CHANNELS 3 Xrotation Yrotation Zrotation
										JOINT Index3.R
										{
											OFFSET -0.021943 0.001552 -0.000291
											CHANNELS 3 Xrotation Yrotation Zrotation
											End Site
											{
												OFFSET -0.017954 0.001270 -0.000238
											}
										}
									}
								}
								JOINT Middle1.R
								{
									OFFSET -0.119691 0.008463 -0.001587
									CHANNELS 3 Xrotation Yrotation Zrotation
									JOINT Middle2.R
									{
										OFFSET -0.030920 0.002186 -0.000410
										CHANNELS 3 Xrotation Yrotation Zrotation
										JOINT Middle3.R
										{
											OFFSET -0.021943 0.001552 -0.000291
											CHANNELS 3 Xrotation Yrotation Zrotation
											End Site
											{
												OFFSET -0.017954 0.001270 -0.000238
											}
										}
									}
								}
								JOINT Ring1.R
								{
									OFFSET -0.101691 0.008463 -0.001587
									CHANNELS 3 Xrotation Yrotation Zrotation
									JOINT Ring2.R
									{
										OFFSET -0.028925 0.002045 -0.000384
										CHANNELS 3 Xrotation Yrotation Zrotation
										JOINT Ring3.R
										{
											OFFSET -0.019948 0.001411 -0.000265
											CHANNELS 3 Xrotation Yrotation Zrotation
											End Site
											{
												OFFSET -0.016956 0.001199 -0.000225
											}
										}
									}
								}
								JOINT Pinky1.R
								{
									OFFSET -0.085691 0.008463 -0.001587
									CHANNELS 3 Xrotation Yrotation Zrotation
									JOINT Pinky2.R
									{
										OFFSET -0.023938 0.001693 -0.000317
										CHANNELS 3 Xrotation Yrotation Zrotation
										JOINT Pinky3.R
										{
											OFFSET -0.016956 0.001199 -0.000225
											CHANNELS 3 Xrotation Yrotation Zrotation
											End Site
											{
												OFFSET -0.013964 0.000987 -0.000185
											}
										}
									}
								}
							}
						}
					}
				}
			}
		}
	}
}
MOTION
Frames: 5
Frame Time: 0.04166667
-0.053869 1.215654 1.104177 -6.596619 -1.413794 0.593777 6.274878 8.211564 -2.903957 3.558067 -0.116685 -12.979611 -9.431943 -2.397112 12.436408 1.038173 -7.322715 0.127213 -20.750334 -0.259685 5.063943 53.173293 -2.345050 0.096515 -3.639576 -1.687165 -8.780329 1.213948 -2.897389 -0.900184 8.845065 2.109567 -1.144067 4.961041 -4.101763 -2.881477 -5.307756 4.963173 0.316870 8.995221 1.526633 5.716857 12.548597 1.970590 5.431382 6.232229 19.881025 1.058622 16.139617 47.394007 -25.451782 11.122233 -0.696962 -18.429386 0.316458 -1.742864 -8.542832 0.000000 0.000000 0.000000 0.000000 0.000000 0.000000 0.000000 0.000000 0.000000 0.000000 0.000000 0.000000 0.000000 0.000000 0.000000 0.000000 0.000000 0.000000 0.000000 0.000000 0.000000 0.000000 0.000000 0.000000 0.000000 0.000000 0.000000 0.000000 0.000000 0.000000 0.000000 0.000000 0.000000 0.000000 0.000000 0.000000 0.000000 0.000000 0.000000 0.000000 0.000000 0.000000 2.152699 -14.037585 0.389549 33.781477 -52.916719 29.625093 7.895885 0.668886 28.221395 -8.667605 -0.152952 7.879583 0.000000 0.000000 0.000000 0.000000 0.000000 0.000000 0.000000 0.000000 0.000000 0.000000 0.000000 0.000000 0.000000 0.000000 0.000000 0.000000 0.000000 0.000000 0.000000 0.000000 0.000000 0.000000 0.000000 0.000000 0.000000 0.000000 0.000000 0.000000 0.000000 0.000000 0.000000 0.000000 0.000000 0.000000 0.000000 0.000000 0.000000 0.000000 0.000000 0.000000 0.000000 0.000000
-0.059001 1.228346 1.103249 -6.794991 -0.492856 2.144252 9.694878 6.981582 -2.182583 3.211866 -0.495401 -15.109900 -10.952961 -2.104506 11.998844 1.611492 -6.368599 -0.005279 -23.532748 -1.052533 5.564366 44.037204 -2.831921 -1.826528 -3.670749 -3.467926 -9.716088 1.515043 -1.510710 -0.610327 9.696531 1.816188 -2.278823 5.216431 -5.138328 -3.396612 -6.903560 4.348882 0.120424 8.987869 2.242165 5.111632 12.422173 1.666967 6.218626 6.771822 19.058262 0.058924 16.602542 47.296223 -28.417957 10.502415 -1.224763 -20.887666 0.224415 -2.901408 -9.045547 0.000000 0.000000 0.000000 0.000000 0.000000 0.000000 0.000000 0.000000 0.000000 0.000000 0.000000 0.000000 0.000000 0.000000 0.000000 0.000000 0.000000 0.000000 0.000000 0.000000 0.000000 0.000000 0.000000 0.000000 0.000000 0.000000 0.000000 0.000000 0.000000 0.000000 0.000000 0.000000 0.000000 0.000000 0.000000 0.000000 0.000000 0.000000 0.000000 0.000000 0.000000 0.000000 3.731732 -14.512707 -0.251739 33.005088 -52.238389 27.404328 8.356991 -0.115717 27.140021 -7.779258 -0.427668 7.981828 0.000000 0.000000 0.000000 0.000000 0.000000 0.000000 0.000000 0.000000 0.000000 0.000000 0.000000 0.000000 0.000000 0.000000 0.000000 0.000000 0.000000 0.000000 0.000000 0.000000 0.000000 0.000000 0.000000 0.000000 0.000000 0.000000 0.000000 0.000000 0.000000 0.000000 0.000000 0.000000 0.000000 0.000000 0.000000 0.000000 0.000000 0.000000 0.000000 0.000000 0.000000 0.000000
-0.060046 1.239916 1.099888 -7.309286 -0.209646 3.186450 12.866322 6.174581 -1.515620 2.600046 -0.640302 -16.545405 -12.655789 -2.141106 11.148270 1.946866 -5.568401 -0.016320 -24.080643 -1.292101 5.636554 32.937387 -2.360104 -3.073607 -3.115940 -5.298210 -10.067359 1.618927 -0.756329 -0.409239 9.865056 1.908930 -2.961122 5.526087 -5.858333 -3.883048 -7.733286 3.925713 -0.048520 8.919963 2.594337 4.844952 12.004478 1.203124 6.982658 6.900875 18.190339 -0.633403 16.427129 47.032523 -30.602803 9.625425 -1.536706 -22.890107 -0.383085 -3.802473 -9.418576 0.000000 0.000000 0.000000 0.000000 0.000000 0.000000 0.000000 0.000000 0.000000 0.000000 0.000000 0.000000 0.000000 0.000000 0.000000 0.000000 0.000000 0.000000 0.000000 0.000000 0.000000 0.000000 0.000000 0.000000 0.000000 0.000000 0.000000 0.000000 0.000000 0.000000 0.000000 0.000000 0.000000 0.000000 0.000000 0.000000 0.000000 0.000000 0.000000 0.000000 0.000000 0.000000 4.796812 -14.750106 -0.943894 32.657439 -51.867938 26.217310 7.973135 -0.834923 25.665740 -6.846761 -1.231525 7.503760 0.000000 0.000000 0.000000 0.000000 0.000000 0.000000 0.000000 0.000000 0.000000 0.000000 0.000000 0.000000 0.000000 0.000000 0.000000 0.000000 0.000000 0.000000 0.000000 0.000000 0.000000 0.000000 0.000000 0.000000 0.000000 0.000000 0.000000 0.000000 0.000000 0.000000 0.000000 0.000000 0.000000 0.000000 0.000000 0.000000 0.000000 0.000000 0.000000 0.000000 0.000000 0.000000
-0.058623 1.252691 1.095034 -8.107820 -0.319626 4.173733 15.924283 5.520511 -0.706582 2.122238 -0.787851 -17.528454 -14.377390 -2.269345 10.248494 2.223365 -4.947882 0.084362 -23.757508 -1.474121 5.420527 22.277380 -1.339462 -3.554349 -1.988940 -7.183075 -9.982630 1.659614 -0.292389 -0.353118 10.091703 2.040675 -3.404054 5.650569 -6.312660 -4.288553 -7.930667 3.521423 -0.280959 8.489414 2.796681 4.632134 11.971725 0.848136 7.727102 6.921964 17.727543 -1.075393 15.580677 46.630619 -31.644809 9.282448 -1.724705 -24.594437 -1.186899 -4.322084 -9.750745 0.000000 0.000000 0.000000 0.000000 0.000000 0.000000 0.000000 0.000000 0.000000 0.000000 0.000000 0.000000 0.000000 0.000000 0.000000 0.000000 0.000000 0.000000 0.000000 0.000000 0.000000 0.000000 0.000000 0.000000 0.000000 0.000000 0.000000 0.000000 0.000000 0.000000 0.000000 0.000000 0.000000 0.000000 0.000000 0.000000 0.000000 0.000000 0.000000 0.000000 0.000000 0.000000 5.299549 -14.950229 -1.500041 32.258859 -51.806844 25.285044 7.477300 -1.141438 24.459920 -6.034042 -1.822965 6.799423 0.000000 0.000000 0.000000 0.000000 0.000000 0.000000 0.000000 0.000000 0.000000 0.000000 0.000000 0.000000 0.000000 0.000000 0.000000 0.000000 0.000000 0.000000 0.000000 0.000000 0.000000 0.000000 0.000000 0.000000 0.000000 0.000000 0.000000 0.000000 0.000000 0.000000 0.000000 0.000000 0.000000 0.000000 0.000000 0.000000 0.000000 0.000000 0.000000 0.000000 0.000000 0.000000
-0.057380 1.266269 1.089464 -9.022879 -0.390954 5.124817 18.837218 4.916820 0.060566 2.299846 -0.944201 -18.209815 -16.501074 -2.528640 9.407552 2.429641 -4.307558 0.175121 -22.235472 -1.451942 4.705292 10.465825 0.029399 -3.666491 -1.230659 -9.160760 -10.009789 1.804942 0.013362 -0.402328 9.695752 2.289013 -3.656176 5.522780 -6.569349 -4.780914 -7.338949 3.190423 -0.569842 8.156780 2.738280 4.280835 11.951742 0.506207 8.463656 6.366322 17.184162 -1.391118 14.878378 46.265619 -32.231599 8.725916 -1.730715 -26.027563 -1.678122 -4.896057 -10.191631 0.000000 0.000000 0.000000 0.000000 0.000000 0.000000 0.000000 0.000000 0.000000 0.000000 0.000000 0.000000 0.000000 0.000000 0.000000 0.000000 0.000000 0.000000 0.000000 0.000000 0.000000 0.000000 0.000000 0.000000 0.000000 0.000000 0.000000 0.000000 0.000000 0.000000 0.000000 0.000000 0.000000 0.000000 0.000000 0.000000 0.000000 0.000000 0.000000 0.000000 0.000000 0.000000 5.157076 -15.338271 -2.188998 32.167339 -51.557577 24.369093 6.562149 -1.607781 23.146351 -4.782331 -2.257744 6.252302 0.000000 0.000000 0.000000 0.000000 0.000000 0.000000 0.000000 0.000000 0.000000 0.000000 0.000000 0.000000 0.000000 0.000000 0.000000 0.000000 0.000000 0.000000 0.000000 0.000000 0.000000 0.000000 0.000000 0.000000 0.000000 0.000000 0.000000 0.000000 0.000000 0.000000 0.000000 0.000000 0.000000 0.000000 0.000000 0.000000 0.000000 0.000000 0.000000 0.000000 0.000000 0.000000
